<svg width="7" height="4" viewBox="0 0 7 4" fill="none" xmlns="http://www.w3.org/2000/svg">
<path d="M6.125 1.23751C6.12519 1.29976 6.11282 1.36126 6.08881 1.41751C6.0648 1.47375 6.02975 1.5233 5.98625 1.56251L3.73625 3.57501C3.66915 3.6363 3.58498 3.6698 3.49812 3.6698C3.41126 3.6698 3.3271 3.6363 3.26 3.57501L1.01 1.49168C0.933415 1.42096 0.885256 1.31933 0.876114 1.20915C0.866971 1.09897 0.897594 0.98927 0.961246 0.90418C1.0249 0.819089 1.11637 0.765579 1.21553 0.755421C1.31468 0.745263 1.41342 0.779288 1.49 0.850013L3.5 2.71251L5.51 0.912513C5.56504 0.861562 5.63207 0.829196 5.70315 0.819246C5.77423 0.809296 5.84639 0.822178 5.91109 0.856368C5.97578 0.890558 6.03031 0.944625 6.06822 1.01217C6.10613 1.07972 6.12583 1.15792 6.125 1.23751Z" fill="black"/>
</svg>
